<?xml version="1.0" encoding="utf-8"?>
<!-- Generator: Adobe Illustrator 17.0.0, SVG Export Plug-In . SVG Version: 6.00 Build 0)  -->
<!DOCTYPE svg PUBLIC "-//W3C//DTD SVG 1.1//EN" "http://www.w3.org/Graphics/SVG/1.1/DTD/svg11.dtd">
<svg version="1.1" id="Livello_1" xmlns="http://www.w3.org/2000/svg" xmlns:xlink="http://www.w3.org/1999/xlink" x="0px" y="0px"
	 width="800px" height="600px" viewBox="0 0 800 600" enable-background="new 0 0 800 600" xml:space="preserve">
<path fill="#FDCE54" d="M557.46,215.247c-19.925-26.671-72.303-43.06-134.968-46.274c-1.607,0-3.536,0-5.142,0
	c52.058,0.964,96.405,25.065,116.972,50.452c-6.107,0.964-12.853,1.929-20.245,3.213c-17.996-27.316-61.698-53.665-113.114-53.665
	c-2.249,0-4.178,0-6.427,0c44.989,1.607,82.907,29.243,97.37,56.236c-8.676,0.964-17.673,1.607-26.351,1.929
	c-12.534-28.923-48.525-58.165-90.941-58.165c-2.249,0-4.498,0-6.749,0.322c34.385,1.929,62.985,30.849,72.947,58.165
	c-8.033-0.322-17.353-0.642-27.636-0.964c-9.32-28.278-35.027-57.201-65.234-57.201c-2.571,0-5.142,0-7.391,0.322
	c21.209,2.891,38.883,29.565,45.954,55.594c-9.64-0.642-19.602-1.284-29.885-1.929c-6.107-26.029-20.567-51.416-37.276-51.416
	c-8.033,0-21.851,4.498-35.991,11.889v-15.102c4.498-1.284,8.033-6.749,8.033-13.176c0-7.391-6.107-13.496-9.962-13.496
	c-3.856,0-9.962,6.107-9.962,13.496c0,7.069,3.856,12.853,8.998,13.496v16.067c-6.427,3.536-12.853,7.391-18.638,11.889v-12.533
	c3.856-0.964,7.069-6.107,7.069-11.889c0-6.749-3.856-12.211-8.676-12.211c-4.82,0-8.676,5.462-8.676,12.211
	c0,6.427,3.536,11.569,7.713,11.889v14.46c-6.107,4.82-11.889,10.282-16.389,16.067c-2.249-0.322-3.536-0.322-3.536-0.322v5.462l0,0
	l0,0l0,0v77.767c9.962,0.322,131.616,0.726,86.948-16.95c-44.989-17.996,220.583-11.008,234.401-11.008V214.6
	C560.674,214.602,559.389,214.924,557.46,215.247z"/>
<g>
	<path fill="#A1D469" d="M294.876,356.365l-0.274-0.274c-3.299-3.225-7.669-4.996-12.313-4.996c-4.797,0-9.274,1.873-12.601,5.277
		l-29.103,29.537c-6.784,6.944-6.656,18.116,0.292,24.9l0.281,0.274c3.299,3.225,7.662,4.996,12.313,4.996
		c4.797,0,9.269-1.873,12.594-5.277l29.103-29.544C301.945,374.329,301.827,363.154,294.876,356.365z"/>
	<path fill="#A1D469" d="M330.635,382.71l-0.281-0.274c-3.299-3.218-7.662-4.996-12.306-4.996c-4.804,0-9.274,1.873-12.605,5.277
		l-29.089,29.551c-6.784,6.937-6.656,18.109,0.287,24.9l0.281,0.267c3.299,3.225,7.669,5.003,12.313,5.003
		c4.797,0,9.274-1.873,12.601-5.277l29.096-29.551C337.711,400.673,337.579,389.501,330.635,382.71z"/>
	<path fill="#A1D469" d="M368.702,405.931l-0.287-0.281c-3.292-3.218-7.662-4.992-12.313-4.992c-4.797,0-9.269,1.873-12.594,5.277
		l-29.103,29.544c-6.784,6.944-6.656,18.116,0.292,24.9l0.281,0.274c3.292,3.218,7.662,4.996,12.313,4.996
		c4.797,0,9.269-1.873,12.601-5.277l29.096-29.551C375.771,423.888,375.636,412.713,368.702,405.931z"/>
	<path fill="#A1D469" d="M404.455,431.237l-0.287-0.287c-3.292-3.211-7.655-4.985-12.306-4.985c-4.797,0-9.269,1.873-12.601,5.277
		l-29.096,29.544c-6.788,6.937-6.656,18.109,0.287,24.9l0.287,0.274c3.292,3.218,7.662,4.996,12.306,4.996
		c4.797,0,9.274-1.873,12.601-5.277l29.096-29.551C411.531,449.193,411.398,438.019,404.455,431.237z"/>
	<path fill="#8DC050" d="M435.723,302.721c-30.824,29.164-54.683,40.065-55.696,40.524l-0.199,0.074
		c-4.591,1.458-10.067,2.226-15.83,2.226c-7.317,0-13.359-1.206-16.317-2.24c-5.97-2.087-16.15-11.914-20.548-19.83
		c-4.53-8.156-0.594-20.502-0.413-21.021l0.139-0.459l67.65-63.797c-3.239-3.232-9.668-4.864-19.143-4.864
		c-25.839,0-64.951,12.494-67.142,13.199c-2.944,1.305-7.215,1.973-12.693,1.973c-9.789,0-20.409-2.059-22.109-2.4
		c-0.021,0-0.032,0-0.053,0c-5.736,0-20.769-9.021-23.187-10.5c-2.458-0.867-4.79-1.312-6.916-1.312
		c-5.785,0-8.509,3.225-9.014,3.883l-32.609,74.399c-10.234,19.257-10.98,24.858-10.894,26.291
		c17.903,4.352,41.637,30.063,47.533,36.706l33.942-33.161l0.54-0.114c2.884-0.607,5.671-0.92,8.275-0.92
		c20.868,0,26.711,19.262,28.037,25.385c1.713-0.167,3.385-0.253,4.985-0.253c24.701,0,29.843,19.776,30.877,26.525
		c3.445-0.693,6.71-1.039,9.747-1.039c22.647,0,27.865,19.016,28.978,25.405c11.914-1.799,21.082,0.76,27.225,7.523
		c9.775,10.734,8.249,28.125,8.182,28.858l-0.06,0.672l-33.601,34.134c4.69,2.499,9.156,3.758,13.299,3.758
		c16.63,0,23.866-20.47,23.94-20.683l0.526-1.526l1.593,0.287c2.777,0.494,5.423,0.747,7.869,0.747
		c22.454,0,23.606-21.209,23.646-22.102l0.1-2.346l2.272,0.587c4.512,1.166,8.729,1.76,12.526,1.76
		c23.393,0,25.732-22.034,25.818-22.966l0.192-2.066l2.038,0.38c3.471,0.654,6.71,0.974,9.635,0.974
		c7.822,0,13.693-2.325,17.437-6.902c7.229-8.829,4.623-23.314,4.47-24.147C524.64,369.951,446.692,310.931,435.723,302.721z"/>
	<path fill="#A1D469" d="M567.457,244.123l-0.046-0.227c-1.913-9.288-7.581-10.674-10.788-10.674c-0.334,0-0.612,0.014-0.818,0.032
		c-17.177,13.394-35.927,15.404-45.615,15.404c-3.705,0-6.03-0.292-6.39-0.341c-17.17-1.679-38.398-8.982-39.291-9.295l-0.213-0.086
		c-13.092-6.397-24.3-9.642-33.335-9.642c-9.067,0-12.527,3.41-12.559,3.452c-38.804,41.604-74.944,69.115-79.082,72.219
		c-6.557,14.518,10.567,26.472,12.812,27.958c4.676,1.138,9.06,1.713,13.039,1.713c6.582,0,9.789-1.611,9.821-1.625l0.434-0.227
		l0.633,0.014c10.134,0,46.594-30.45,59.793-42.184l0.953-0.846l1.145,0.559c43.934,21.562,99.531,86.186,102.677,89.877
		c3.079,2.332,5.944,3.505,8.502,3.505c2.984,0,4.544-1.632,4.604-1.699l0.185-0.181l44.915-37.512l0.313-0.114
		c4.996-1.839,8.189-4.391,9.475-7.57c1.465-3.612-0.053-6.944-0.074-6.976L567.457,244.123z"/>
</g>
<g>
	<path fill="#F6BB43" d="M513.574,106.349l-4.493,18.988c0.03,0,0.063,0,0.093,0c1.426,0,2.812,0.172,4.136,0.496L513.574,106.349
		L513.574,106.349z M499.606,107.379l3.109,19.206c1.301-0.524,2.678-0.895,4.118-1.09L499.606,107.379L499.606,107.379z
		 M526.875,110.745l-11.393,15.779c1.335,0.522,2.59,1.213,3.733,2.036L526.875,110.745L526.875,110.745z M487.093,113.669
		l10.155,16.459c1.015-0.978,2.158-1.832,3.399-2.539L487.093,113.669L487.093,113.669z M537.475,119.898l-16.452,10.155
		c1.022,0.974,1.915,2.07,2.664,3.269L537.475,119.898L537.475,119.898z M477.94,124.276l15.566,11.233
		c0.561-1.301,1.287-2.511,2.149-3.617L477.94,124.276L477.94,124.276z M543.772,132.411l-18.953,3.058
		c0.552,1.27,0.944,2.622,1.157,4.032L543.772,132.411L543.772,132.411z M473.544,137.574l18.631,4.41v-0.007
		c0-1.43,0.185-2.822,0.533-4.148L473.544,137.574L473.544,137.574z M526.17,141.965c0,0.005,0,0.009,0,0.012
		c0,1.433-0.185,2.817-0.533,4.143l19.164,0.26L526.17,141.965L526.17,141.965z M492.368,144.453l-17.796,7.09l18.953-3.063
		C492.975,147.212,492.583,145.86,492.368,144.453L492.368,144.453z M524.837,148.441c-0.561,1.301-1.287,2.509-2.149,3.614
		l17.715,7.623L524.837,148.441L524.837,148.441z M494.658,150.627l-13.79,13.424l16.452-10.155
		C496.3,152.922,495.405,151.826,494.658,150.627L494.658,150.627z M521.098,153.829c-1.015,0.976-2.156,1.827-3.394,2.532
		l13.547,13.92L521.098,153.829L521.098,153.829z M499.13,155.396l-7.66,17.806l11.393-15.775
		C501.525,156.903,500.273,156.217,499.13,155.396L499.13,155.396z M515.631,157.371c-1.301,0.522-2.678,0.888-4.118,1.083
		l7.227,18.123L515.631,157.371L515.631,157.371z M505.036,158.113l-0.267,19.493l4.493-18.99c-0.03,0-0.06,0-0.093,0
		C507.746,158.614,506.359,158.438,505.036,158.113L505.036,158.113z"/>
	<path fill="#F6BB43" d="M524.137,141.977c0,7.936-6.573,14.374-14.683,14.374c-8.11,0-14.683-6.436-14.683-14.374
		c0-7.938,6.573-14.372,14.683-14.372C517.562,127.605,524.137,134.039,524.137,141.977L524.137,141.977z"/>
</g>
</svg>
